<mxfile host="app.diagrams.net" modified="2023-05-30T12:48:44.838Z" agent="Mozilla/5.0 (Windows NT 10.0; Win64; x64) AppleWebKit/537.36 (KHTML, like Gecko) Chrome/92.0.4515.131 Safari/537.36 SLBrowser/8.0.1.4031 SLBChan/105" etag="Dw5MPV-Js_wFU02f_Jje" version="21.3.5" type="device">
  <diagram name="第 1 页" id="RU2LhQXRKM0LdzfUhJAH">
    <mxGraphModel dx="1221" dy="635" grid="1" gridSize="10" guides="1" tooltips="1" connect="1" arrows="1" fold="1" page="1" pageScale="1" pageWidth="827" pageHeight="1169" math="0" shadow="0">
      <root>
        <mxCell id="0" />
        <mxCell id="1" parent="0" />
        <mxCell id="nFuFbTwojb7XlyOmYddN-1" value="&lt;font style=&quot;font-size: 16px;&quot;&gt;登录&lt;/font&gt;" style="rounded=0;whiteSpace=wrap;html=1;" vertex="1" parent="1">
          <mxGeometry x="350" y="200" width="120" height="60" as="geometry" />
        </mxCell>
        <mxCell id="nFuFbTwojb7XlyOmYddN-2" style="edgeStyle=orthogonalEdgeStyle;rounded=0;orthogonalLoop=1;jettySize=auto;html=1;exitX=0;exitY=0.5;exitDx=0;exitDy=0;entryX=0.558;entryY=1.089;entryDx=0;entryDy=0;entryPerimeter=0;" edge="1" parent="1" source="nFuFbTwojb7XlyOmYddN-1" target="nFuFbTwojb7XlyOmYddN-1">
          <mxGeometry relative="1" as="geometry" />
        </mxCell>
        <mxCell id="nFuFbTwojb7XlyOmYddN-3" value="登陆失败" style="text;html=1;align=center;verticalAlign=middle;resizable=0;points=[];autosize=1;strokeColor=none;fillColor=none;" vertex="1" parent="1">
          <mxGeometry x="330" y="278" width="70" height="30" as="geometry" />
        </mxCell>
        <mxCell id="nFuFbTwojb7XlyOmYddN-4" value="" style="ellipse;fillColor=strokeColor;html=1;" vertex="1" parent="1">
          <mxGeometry x="40" y="230" width="10" height="15" as="geometry" />
        </mxCell>
        <mxCell id="nFuFbTwojb7XlyOmYddN-5" value="" style="endArrow=classic;html=1;rounded=0;exitX=1;exitY=0.5;exitDx=0;exitDy=0;entryX=0;entryY=0.25;entryDx=0;entryDy=0;" edge="1" parent="1" source="nFuFbTwojb7XlyOmYddN-4" target="nFuFbTwojb7XlyOmYddN-1">
          <mxGeometry width="50" height="50" relative="1" as="geometry">
            <mxPoint x="390" y="250" as="sourcePoint" />
            <mxPoint x="440" y="200" as="targetPoint" />
          </mxGeometry>
        </mxCell>
        <mxCell id="nFuFbTwojb7XlyOmYddN-6" value="开始" style="text;html=1;align=center;verticalAlign=middle;resizable=0;points=[];autosize=1;strokeColor=none;fillColor=none;" vertex="1" parent="1">
          <mxGeometry x="15" y="208" width="50" height="30" as="geometry" />
        </mxCell>
        <mxCell id="nFuFbTwojb7XlyOmYddN-7" value="" style="endArrow=classic;html=1;rounded=0;exitX=0.75;exitY=1;exitDx=0;exitDy=0;entryX=0.564;entryY=-0.056;entryDx=0;entryDy=0;entryPerimeter=0;" edge="1" parent="1" source="nFuFbTwojb7XlyOmYddN-1" target="nFuFbTwojb7XlyOmYddN-8">
          <mxGeometry width="50" height="50" relative="1" as="geometry">
            <mxPoint x="570" y="250" as="sourcePoint" />
            <mxPoint x="440" y="370" as="targetPoint" />
          </mxGeometry>
        </mxCell>
        <mxCell id="nFuFbTwojb7XlyOmYddN-8" value="管理员主页面" style="rounded=0;whiteSpace=wrap;html=1;" vertex="1" parent="1">
          <mxGeometry x="380" y="380" width="110" height="30" as="geometry" />
        </mxCell>
        <mxCell id="nFuFbTwojb7XlyOmYddN-9" value="登陆成功" style="text;html=1;align=center;verticalAlign=middle;resizable=0;points=[];autosize=1;strokeColor=none;fillColor=none;" vertex="1" parent="1">
          <mxGeometry x="379" y="308" width="70" height="30" as="geometry" />
        </mxCell>
        <mxCell id="nFuFbTwojb7XlyOmYddN-10" value="" style="endArrow=classic;html=1;rounded=0;entryX=0.5;entryY=0;entryDx=0;entryDy=0;exitX=0.433;exitY=1.067;exitDx=0;exitDy=0;exitPerimeter=0;" edge="1" parent="1" source="nFuFbTwojb7XlyOmYddN-11" target="nFuFbTwojb7XlyOmYddN-1">
          <mxGeometry width="50" height="50" relative="1" as="geometry">
            <mxPoint x="410" y="90" as="sourcePoint" />
            <mxPoint x="430" y="60" as="targetPoint" />
          </mxGeometry>
        </mxCell>
        <mxCell id="nFuFbTwojb7XlyOmYddN-11" value="游客首页" style="rounded=0;whiteSpace=wrap;html=1;" vertex="1" parent="1">
          <mxGeometry x="360" y="50" width="110" height="30" as="geometry" />
        </mxCell>
        <mxCell id="nFuFbTwojb7XlyOmYddN-12" value="" style="endArrow=classic;html=1;rounded=0;entryX=0.652;entryY=0.978;entryDx=0;entryDy=0;entryPerimeter=0;exitX=0.692;exitY=-0.056;exitDx=0;exitDy=0;exitPerimeter=0;" edge="1" parent="1" source="nFuFbTwojb7XlyOmYddN-1" target="nFuFbTwojb7XlyOmYddN-11">
          <mxGeometry width="50" height="50" relative="1" as="geometry">
            <mxPoint x="600" y="250" as="sourcePoint" />
            <mxPoint x="650" y="200" as="targetPoint" />
          </mxGeometry>
        </mxCell>
        <mxCell id="nFuFbTwojb7XlyOmYddN-34" value="点击随便看看" style="edgeLabel;html=1;align=center;verticalAlign=middle;resizable=0;points=[];" vertex="1" connectable="0" parent="nFuFbTwojb7XlyOmYddN-12">
          <mxGeometry x="-0.4154" y="-2" relative="1" as="geometry">
            <mxPoint x="35" y="-3" as="offset" />
          </mxGeometry>
        </mxCell>
        <mxCell id="nFuFbTwojb7XlyOmYddN-13" value="" style="endArrow=classic;html=1;rounded=0;exitX=0.136;exitY=-0.022;exitDx=0;exitDy=0;exitPerimeter=0;entryX=0.573;entryY=1.044;entryDx=0;entryDy=0;entryPerimeter=0;" edge="1" parent="1" source="nFuFbTwojb7XlyOmYddN-1" target="nFuFbTwojb7XlyOmYddN-14">
          <mxGeometry width="50" height="50" relative="1" as="geometry">
            <mxPoint x="600" y="250" as="sourcePoint" />
            <mxPoint x="300" y="70" as="targetPoint" />
          </mxGeometry>
        </mxCell>
        <mxCell id="nFuFbTwojb7XlyOmYddN-14" value="注册页面" style="rounded=0;whiteSpace=wrap;html=1;" vertex="1" parent="1">
          <mxGeometry x="230" y="30" width="110" height="30" as="geometry" />
        </mxCell>
        <mxCell id="nFuFbTwojb7XlyOmYddN-15" value="" style="endArrow=classic;html=1;rounded=0;exitX=0.318;exitY=1.022;exitDx=0;exitDy=0;exitPerimeter=0;entryX=-0.014;entryY=0.144;entryDx=0;entryDy=0;entryPerimeter=0;" edge="1" parent="1" source="nFuFbTwojb7XlyOmYddN-14" target="nFuFbTwojb7XlyOmYddN-1">
          <mxGeometry width="50" height="50" relative="1" as="geometry">
            <mxPoint x="600" y="250" as="sourcePoint" />
            <mxPoint x="650" y="200" as="targetPoint" />
          </mxGeometry>
        </mxCell>
        <mxCell id="nFuFbTwojb7XlyOmYddN-16" value="" style="endArrow=classic;html=1;rounded=0;exitX=1;exitY=0.5;exitDx=0;exitDy=0;entryX=0;entryY=0.5;entryDx=0;entryDy=0;" edge="1" parent="1" source="nFuFbTwojb7XlyOmYddN-1" target="nFuFbTwojb7XlyOmYddN-17">
          <mxGeometry width="50" height="50" relative="1" as="geometry">
            <mxPoint x="600" y="250" as="sourcePoint" />
            <mxPoint x="650" y="230" as="targetPoint" />
          </mxGeometry>
        </mxCell>
        <mxCell id="nFuFbTwojb7XlyOmYddN-17" value="&lt;font style=&quot;font-size: 16px;&quot;&gt;首页&lt;/font&gt;" style="rounded=0;whiteSpace=wrap;html=1;" vertex="1" parent="1">
          <mxGeometry x="660" y="200" width="120" height="60" as="geometry" />
        </mxCell>
        <mxCell id="nFuFbTwojb7XlyOmYddN-18" value="流派介绍界面" style="rounded=0;whiteSpace=wrap;html=1;" vertex="1" parent="1">
          <mxGeometry x="980" y="100" width="100" height="40" as="geometry" />
        </mxCell>
        <mxCell id="nFuFbTwojb7XlyOmYddN-19" value="作品页面" style="rounded=0;whiteSpace=wrap;html=1;" vertex="1" parent="1">
          <mxGeometry x="1030" y="210" width="100" height="40" as="geometry" />
        </mxCell>
        <mxCell id="nFuFbTwojb7XlyOmYddN-20" value="创作页面" style="rounded=0;whiteSpace=wrap;html=1;" vertex="1" parent="1">
          <mxGeometry x="980" y="377" width="100" height="36" as="geometry" />
        </mxCell>
        <mxCell id="nFuFbTwojb7XlyOmYddN-21" value="我的页面" style="rounded=0;whiteSpace=wrap;html=1;" vertex="1" parent="1">
          <mxGeometry x="530" y="420" width="110" height="30" as="geometry" />
        </mxCell>
        <mxCell id="nFuFbTwojb7XlyOmYddN-22" value="" style="endArrow=classic;html=1;rounded=0;exitX=1;exitY=0.25;exitDx=0;exitDy=0;entryX=0;entryY=0.5;entryDx=0;entryDy=0;" edge="1" parent="1" source="nFuFbTwojb7XlyOmYddN-17" target="nFuFbTwojb7XlyOmYddN-18">
          <mxGeometry width="50" height="50" relative="1" as="geometry">
            <mxPoint x="700" y="250" as="sourcePoint" />
            <mxPoint x="750" y="200" as="targetPoint" />
          </mxGeometry>
        </mxCell>
        <mxCell id="nFuFbTwojb7XlyOmYddN-23" value="" style="endArrow=classic;html=1;rounded=0;exitX=1;exitY=0.5;exitDx=0;exitDy=0;entryX=0;entryY=0.5;entryDx=0;entryDy=0;" edge="1" parent="1" source="nFuFbTwojb7XlyOmYddN-17" target="nFuFbTwojb7XlyOmYddN-19">
          <mxGeometry width="50" height="50" relative="1" as="geometry">
            <mxPoint x="700" y="250" as="sourcePoint" />
            <mxPoint x="750" y="200" as="targetPoint" />
          </mxGeometry>
        </mxCell>
        <mxCell id="nFuFbTwojb7XlyOmYddN-26" value="" style="endArrow=classic;html=1;rounded=0;exitX=1.025;exitY=0.889;exitDx=0;exitDy=0;exitPerimeter=0;entryX=0;entryY=0.5;entryDx=0;entryDy=0;" edge="1" parent="1" source="nFuFbTwojb7XlyOmYddN-17" target="nFuFbTwojb7XlyOmYddN-20">
          <mxGeometry width="50" height="50" relative="1" as="geometry">
            <mxPoint x="700" y="250" as="sourcePoint" />
            <mxPoint x="750" y="200" as="targetPoint" />
          </mxGeometry>
        </mxCell>
        <mxCell id="nFuFbTwojb7XlyOmYddN-27" value="" style="endArrow=classic;html=1;rounded=0;exitX=0.5;exitY=1;exitDx=0;exitDy=0;entryX=0.75;entryY=0;entryDx=0;entryDy=0;" edge="1" parent="1" source="nFuFbTwojb7XlyOmYddN-17" target="nFuFbTwojb7XlyOmYddN-21">
          <mxGeometry width="50" height="50" relative="1" as="geometry">
            <mxPoint x="700" y="250" as="sourcePoint" />
            <mxPoint x="750" y="200" as="targetPoint" />
          </mxGeometry>
        </mxCell>
        <mxCell id="nFuFbTwojb7XlyOmYddN-28" value="" style="endArrow=classic;html=1;rounded=0;exitX=0.355;exitY=-0.067;exitDx=0;exitDy=0;exitPerimeter=0;entryX=1;entryY=1;entryDx=0;entryDy=0;" edge="1" parent="1" source="nFuFbTwojb7XlyOmYddN-21" target="nFuFbTwojb7XlyOmYddN-1">
          <mxGeometry width="50" height="50" relative="1" as="geometry">
            <mxPoint x="700" y="250" as="sourcePoint" />
            <mxPoint x="750" y="200" as="targetPoint" />
          </mxGeometry>
        </mxCell>
        <mxCell id="nFuFbTwojb7XlyOmYddN-29" value="" style="endArrow=classic;html=1;rounded=0;exitX=0.439;exitY=1.178;exitDx=0;exitDy=0;exitPerimeter=0;entryX=0.419;entryY=0.017;entryDx=0;entryDy=0;entryPerimeter=0;" edge="1" parent="1" source="nFuFbTwojb7XlyOmYddN-21" target="nFuFbTwojb7XlyOmYddN-30">
          <mxGeometry width="50" height="50" relative="1" as="geometry">
            <mxPoint x="700" y="450" as="sourcePoint" />
            <mxPoint x="580" y="540" as="targetPoint" />
          </mxGeometry>
        </mxCell>
        <mxCell id="nFuFbTwojb7XlyOmYddN-30" value="收藏界面" style="rounded=0;whiteSpace=wrap;html=1;" vertex="1" parent="1">
          <mxGeometry x="530" y="555" width="110" height="35" as="geometry" />
        </mxCell>
        <mxCell id="nFuFbTwojb7XlyOmYddN-31" value="点击注册" style="text;html=1;align=center;verticalAlign=middle;resizable=0;points=[];autosize=1;strokeColor=none;fillColor=none;" vertex="1" parent="1">
          <mxGeometry x="320" y="110" width="70" height="30" as="geometry" />
        </mxCell>
        <mxCell id="nFuFbTwojb7XlyOmYddN-33" value="提交注册" style="text;html=1;align=center;verticalAlign=middle;resizable=0;points=[];autosize=1;strokeColor=none;fillColor=none;" vertex="1" parent="1">
          <mxGeometry x="250" y="120" width="70" height="30" as="geometry" />
        </mxCell>
        <mxCell id="nFuFbTwojb7XlyOmYddN-35" value="点击登录" style="text;html=1;align=center;verticalAlign=middle;resizable=0;points=[];autosize=1;strokeColor=none;fillColor=none;" vertex="1" parent="1">
          <mxGeometry x="350" y="140" width="70" height="30" as="geometry" />
        </mxCell>
        <mxCell id="nFuFbTwojb7XlyOmYddN-36" value="点击退出登录" style="text;html=1;align=center;verticalAlign=middle;resizable=0;points=[];autosize=1;strokeColor=none;fillColor=none;" vertex="1" parent="1">
          <mxGeometry x="510" y="320" width="100" height="30" as="geometry" />
        </mxCell>
        <mxCell id="nFuFbTwojb7XlyOmYddN-37" value="点击我的收藏" style="text;html=1;align=center;verticalAlign=middle;resizable=0;points=[];autosize=1;strokeColor=none;fillColor=none;" vertex="1" parent="1">
          <mxGeometry x="565" y="478" width="100" height="30" as="geometry" />
        </mxCell>
        <mxCell id="nFuFbTwojb7XlyOmYddN-38" value="点击下方Tab栏（我的页面）" style="text;html=1;align=center;verticalAlign=middle;resizable=0;points=[];autosize=1;strokeColor=none;fillColor=none;" vertex="1" parent="1">
          <mxGeometry x="665" y="350" width="170" height="30" as="geometry" />
        </mxCell>
        <mxCell id="nFuFbTwojb7XlyOmYddN-40" value="" style="endArrow=classic;html=1;rounded=0;exitX=1;exitY=0;exitDx=0;exitDy=0;" edge="1" parent="1" source="nFuFbTwojb7XlyOmYddN-1" target="nFuFbTwojb7XlyOmYddN-41">
          <mxGeometry width="50" height="50" relative="1" as="geometry">
            <mxPoint x="320" y="350" as="sourcePoint" />
            <mxPoint x="560" y="110" as="targetPoint" />
          </mxGeometry>
        </mxCell>
        <mxCell id="nFuFbTwojb7XlyOmYddN-41" value="找回密码界面" style="rounded=0;whiteSpace=wrap;html=1;" vertex="1" parent="1">
          <mxGeometry x="565" y="50" width="115" height="30" as="geometry" />
        </mxCell>
        <mxCell id="nFuFbTwojb7XlyOmYddN-42" value="点击找回密码" style="text;html=1;align=center;verticalAlign=middle;resizable=0;points=[];autosize=1;strokeColor=none;fillColor=none;" vertex="1" parent="1">
          <mxGeometry x="470" y="100" width="100" height="30" as="geometry" />
        </mxCell>
        <mxCell id="nFuFbTwojb7XlyOmYddN-43" value="" style="endArrow=classic;html=1;rounded=0;exitX=0.603;exitY=1.044;exitDx=0;exitDy=0;exitPerimeter=0;entryX=1;entryY=0.25;entryDx=0;entryDy=0;" edge="1" parent="1" source="nFuFbTwojb7XlyOmYddN-41" target="nFuFbTwojb7XlyOmYddN-1">
          <mxGeometry width="50" height="50" relative="1" as="geometry">
            <mxPoint x="320" y="350" as="sourcePoint" />
            <mxPoint x="370" y="300" as="targetPoint" />
          </mxGeometry>
        </mxCell>
        <mxCell id="nFuFbTwojb7XlyOmYddN-44" value="提交更改" style="text;html=1;align=center;verticalAlign=middle;resizable=0;points=[];autosize=1;strokeColor=none;fillColor=none;" vertex="1" parent="1">
          <mxGeometry x="565" y="140" width="70" height="30" as="geometry" />
        </mxCell>
        <mxCell id="nFuFbTwojb7XlyOmYddN-45" value="" style="endArrow=classic;html=1;rounded=0;exitX=0;exitY=0.25;exitDx=0;exitDy=0;entryX=0.75;entryY=0;entryDx=0;entryDy=0;" edge="1" parent="1" source="nFuFbTwojb7XlyOmYddN-18" target="nFuFbTwojb7XlyOmYddN-17">
          <mxGeometry width="50" height="50" relative="1" as="geometry">
            <mxPoint x="680" y="350" as="sourcePoint" />
            <mxPoint x="730" y="300" as="targetPoint" />
            <Array as="points">
              <mxPoint x="830" y="110" />
            </Array>
          </mxGeometry>
        </mxCell>
        <mxCell id="nFuFbTwojb7XlyOmYddN-46" value="登陆成功" style="text;html=1;align=center;verticalAlign=middle;resizable=0;points=[];autosize=1;strokeColor=none;fillColor=none;" vertex="1" parent="1">
          <mxGeometry x="525" y="200" width="70" height="30" as="geometry" />
        </mxCell>
        <mxCell id="nFuFbTwojb7XlyOmYddN-47" value="点击下方Tab栏（创作页ID）" style="text;html=1;align=center;verticalAlign=middle;resizable=0;points=[];autosize=1;strokeColor=none;fillColor=none;" vertex="1" parent="1">
          <mxGeometry x="885" y="300" width="170" height="30" as="geometry" />
        </mxCell>
        <mxCell id="nFuFbTwojb7XlyOmYddN-48" value="点击流派" style="text;html=1;align=center;verticalAlign=middle;resizable=0;points=[];autosize=1;strokeColor=none;fillColor=none;" vertex="1" parent="1">
          <mxGeometry x="820" y="140" width="70" height="30" as="geometry" />
        </mxCell>
        <mxCell id="nFuFbTwojb7XlyOmYddN-49" value="点击返回" style="text;html=1;align=center;verticalAlign=middle;resizable=0;points=[];autosize=1;strokeColor=none;fillColor=none;" vertex="1" parent="1">
          <mxGeometry x="850" y="80" width="70" height="30" as="geometry" />
        </mxCell>
        <mxCell id="nFuFbTwojb7XlyOmYddN-50" value="" style="endArrow=classic;html=1;rounded=0;exitX=0;exitY=0.75;exitDx=0;exitDy=0;entryX=1.025;entryY=0.644;entryDx=0;entryDy=0;entryPerimeter=0;" edge="1" parent="1" source="nFuFbTwojb7XlyOmYddN-19" target="nFuFbTwojb7XlyOmYddN-17">
          <mxGeometry width="50" height="50" relative="1" as="geometry">
            <mxPoint x="680" y="350" as="sourcePoint" />
            <mxPoint x="730" y="300" as="targetPoint" />
          </mxGeometry>
        </mxCell>
        <mxCell id="nFuFbTwojb7XlyOmYddN-51" value="点击用户创作内容（用户ID）" style="text;html=1;align=center;verticalAlign=middle;resizable=0;points=[];autosize=1;strokeColor=none;fillColor=none;" vertex="1" parent="1">
          <mxGeometry x="820" y="208" width="180" height="30" as="geometry" />
        </mxCell>
        <mxCell id="nFuFbTwojb7XlyOmYddN-52" value="点击返回" style="text;html=1;align=center;verticalAlign=middle;resizable=0;points=[];autosize=1;strokeColor=none;fillColor=none;" vertex="1" parent="1">
          <mxGeometry x="860" y="238" width="70" height="30" as="geometry" />
        </mxCell>
        <mxCell id="nFuFbTwojb7XlyOmYddN-53" value="" style="endArrow=classic;html=1;rounded=0;exitX=0.25;exitY=1;exitDx=0;exitDy=0;entryX=0.75;entryY=0;entryDx=0;entryDy=0;" edge="1" parent="1" source="nFuFbTwojb7XlyOmYddN-20" target="nFuFbTwojb7XlyOmYddN-56">
          <mxGeometry width="50" height="50" relative="1" as="geometry">
            <mxPoint x="680" y="350" as="sourcePoint" />
            <mxPoint x="1005" y="520" as="targetPoint" />
          </mxGeometry>
        </mxCell>
        <mxCell id="nFuFbTwojb7XlyOmYddN-54" value="" style="endArrow=classic;html=1;rounded=0;exitX=0.75;exitY=1;exitDx=0;exitDy=0;entryX=0.155;entryY=-0.156;entryDx=0;entryDy=0;entryPerimeter=0;" edge="1" parent="1" source="nFuFbTwojb7XlyOmYddN-20" target="nFuFbTwojb7XlyOmYddN-57">
          <mxGeometry width="50" height="50" relative="1" as="geometry">
            <mxPoint x="680" y="350" as="sourcePoint" />
            <mxPoint x="1055" y="490" as="targetPoint" />
          </mxGeometry>
        </mxCell>
        <mxCell id="nFuFbTwojb7XlyOmYddN-56" value="显示已创作画作" style="rounded=0;whiteSpace=wrap;html=1;" vertex="1" parent="1">
          <mxGeometry x="910" y="520" width="110" height="30" as="geometry" />
        </mxCell>
        <mxCell id="nFuFbTwojb7XlyOmYddN-57" value="显示已编辑画作" style="rounded=0;whiteSpace=wrap;html=1;" vertex="1" parent="1">
          <mxGeometry x="1050" y="520" width="110" height="30" as="geometry" />
        </mxCell>
        <mxCell id="nFuFbTwojb7XlyOmYddN-58" value="" style="endArrow=classic;html=1;rounded=0;exitX=1;exitY=0.5;exitDx=0;exitDy=0;" edge="1" parent="1" source="nFuFbTwojb7XlyOmYddN-20" target="nFuFbTwojb7XlyOmYddN-59">
          <mxGeometry width="50" height="50" relative="1" as="geometry">
            <mxPoint x="820" y="350" as="sourcePoint" />
            <mxPoint x="1210" y="390" as="targetPoint" />
          </mxGeometry>
        </mxCell>
        <mxCell id="nFuFbTwojb7XlyOmYddN-59" value="新增作品页面" style="rounded=0;whiteSpace=wrap;html=1;" vertex="1" parent="1">
          <mxGeometry x="1230" y="377" width="99" height="35" as="geometry" />
        </mxCell>
        <mxCell id="nFuFbTwojb7XlyOmYddN-60" value="点击创作“+”号/选择图片" style="text;html=1;align=center;verticalAlign=middle;resizable=0;points=[];autosize=1;strokeColor=none;fillColor=none;" vertex="1" parent="1">
          <mxGeometry x="1080" y="368" width="150" height="30" as="geometry" />
        </mxCell>
        <mxCell id="nFuFbTwojb7XlyOmYddN-61" value="" style="endArrow=classic;html=1;rounded=0;exitX=1;exitY=0.5;exitDx=0;exitDy=0;" edge="1" parent="1" source="nFuFbTwojb7XlyOmYddN-59" target="nFuFbTwojb7XlyOmYddN-62">
          <mxGeometry width="50" height="50" relative="1" as="geometry">
            <mxPoint x="1160" y="350" as="sourcePoint" />
            <mxPoint x="1440" y="395" as="targetPoint" />
          </mxGeometry>
        </mxCell>
        <mxCell id="nFuFbTwojb7XlyOmYddN-62" value="显示作品" style="rounded=0;whiteSpace=wrap;html=1;" vertex="1" parent="1">
          <mxGeometry x="1470" y="377" width="100" height="30" as="geometry" />
        </mxCell>
        <mxCell id="nFuFbTwojb7XlyOmYddN-63" value="" style="endArrow=classic;html=1;rounded=0;exitX=0;exitY=0.25;exitDx=0;exitDy=0;entryX=1;entryY=0.25;entryDx=0;entryDy=0;" edge="1" parent="1" source="nFuFbTwojb7XlyOmYddN-62" target="nFuFbTwojb7XlyOmYddN-59">
          <mxGeometry width="50" height="50" relative="1" as="geometry">
            <mxPoint x="1160" y="350" as="sourcePoint" />
            <mxPoint x="1210" y="300" as="targetPoint" />
          </mxGeometry>
        </mxCell>
        <mxCell id="nFuFbTwojb7XlyOmYddN-64" value="点击重新生成" style="text;html=1;align=center;verticalAlign=middle;resizable=0;points=[];autosize=1;strokeColor=none;fillColor=none;" vertex="1" parent="1">
          <mxGeometry x="1330" y="358" width="100" height="30" as="geometry" />
        </mxCell>
        <mxCell id="nFuFbTwojb7XlyOmYddN-65" value="点击提交（风格ID，&lt;br&gt;图片ID）" style="text;html=1;align=center;verticalAlign=middle;resizable=0;points=[];autosize=1;strokeColor=none;fillColor=none;" vertex="1" parent="1">
          <mxGeometry x="1330" y="398" width="130" height="40" as="geometry" />
        </mxCell>
        <mxCell id="nFuFbTwojb7XlyOmYddN-66" value="" style="endArrow=classic;html=1;rounded=0;exitX=0.5;exitY=1;exitDx=0;exitDy=0;" edge="1" parent="1" source="nFuFbTwojb7XlyOmYddN-62">
          <mxGeometry width="50" height="50" relative="1" as="geometry">
            <mxPoint x="1160" y="350" as="sourcePoint" />
            <mxPoint x="1520" y="500" as="targetPoint" />
          </mxGeometry>
        </mxCell>
        <mxCell id="nFuFbTwojb7XlyOmYddN-67" value="提示保存成功" style="rounded=0;whiteSpace=wrap;html=1;" vertex="1" parent="1">
          <mxGeometry x="1470" y="505" width="110" height="35" as="geometry" />
        </mxCell>
        <mxCell id="nFuFbTwojb7XlyOmYddN-69" value="点击保存（图片url）" style="text;html=1;align=center;verticalAlign=middle;resizable=0;points=[];autosize=1;strokeColor=none;fillColor=none;" vertex="1" parent="1">
          <mxGeometry x="1400" y="448" width="130" height="30" as="geometry" />
        </mxCell>
        <mxCell id="nFuFbTwojb7XlyOmYddN-70" value="" style="endArrow=classic;html=1;rounded=0;exitX=0;exitY=0.5;exitDx=0;exitDy=0;entryX=1;entryY=1;entryDx=0;entryDy=0;" edge="1" parent="1" source="nFuFbTwojb7XlyOmYddN-67" target="nFuFbTwojb7XlyOmYddN-20">
          <mxGeometry width="50" height="50" relative="1" as="geometry">
            <mxPoint x="1160" y="350" as="sourcePoint" />
            <mxPoint x="1210" y="300" as="targetPoint" />
          </mxGeometry>
        </mxCell>
        <mxCell id="nFuFbTwojb7XlyOmYddN-72" value="" style="endArrow=classic;html=1;rounded=0;exitX=1;exitY=0.5;exitDx=0;exitDy=0;entryX=1;entryY=0.5;entryDx=0;entryDy=0;" edge="1" parent="1" source="nFuFbTwojb7XlyOmYddN-30" target="nFuFbTwojb7XlyOmYddN-19">
          <mxGeometry width="50" height="50" relative="1" as="geometry">
            <mxPoint x="1160" y="350" as="sourcePoint" />
            <mxPoint x="1610" y="170" as="targetPoint" />
            <Array as="points">
              <mxPoint x="1640" y="580" />
              <mxPoint x="1640" y="230" />
            </Array>
          </mxGeometry>
        </mxCell>
        <mxCell id="nFuFbTwojb7XlyOmYddN-73" value="点击画作（画作ID）" style="text;html=1;align=center;verticalAlign=middle;resizable=0;points=[];autosize=1;strokeColor=none;fillColor=none;" vertex="1" parent="1">
          <mxGeometry x="965" y="580" width="130" height="30" as="geometry" />
        </mxCell>
        <mxCell id="nFuFbTwojb7XlyOmYddN-74" value="点击全部" style="text;html=1;align=center;verticalAlign=middle;resizable=0;points=[];autosize=1;strokeColor=none;fillColor=none;" vertex="1" parent="1">
          <mxGeometry x="930" y="450" width="70" height="30" as="geometry" />
        </mxCell>
        <mxCell id="nFuFbTwojb7XlyOmYddN-75" value="点击已编辑" style="text;html=1;align=center;verticalAlign=middle;resizable=0;points=[];autosize=1;strokeColor=none;fillColor=none;" vertex="1" parent="1">
          <mxGeometry x="1065" y="448" width="80" height="30" as="geometry" />
        </mxCell>
      </root>
    </mxGraphModel>
  </diagram>
</mxfile>
